<svg width="149" height="42" viewBox="0 0 149 42" fill="none" xmlns="http://www.w3.org/2000/svg">
<path d="M20.4971 36.3327L37.4348 42L29.3376 23.8337L20.4971 36.3327Z" fill="#1863CC"/>
<path d="M18.7368 34.3918L28.1249 21.1164L18.7368 0L9.30962 21.1164L18.7368 34.3918Z" fill="#1863CC"/>
<path d="M8.09721 23.8337L0 42L16.9376 36.3327L8.09721 23.8337Z" fill="#1863CC"/>
<path d="M56.626 32.9369H49.1027L47.5981 36.4477H44.7393L51.5102 21.2007H54.2687L61.0396 36.4477H58.1306L56.626 32.9369ZM55.7232 30.6799L52.8644 24.0093L50.0557 30.6799H55.7232Z" fill="#505A7C"/>
<path d="M77.0385 21.2007H79.8471V36.4477H77.0385V21.2007Z" fill="#505A7C"/>
<path d="M86.9693 23.6081H81.9037V21.2007H94.8437V23.6081H89.778V36.4477H86.9693V23.6081Z" fill="#505A7C"/>
<path d="M99.4076 35.6452C98.2039 34.9932 97.2509 34.0403 96.5487 32.8365C95.8466 31.6328 95.4955 30.2786 95.4955 28.8241C95.4955 27.3697 95.8466 26.0155 96.5487 24.8118C97.2509 23.608 98.2039 22.6551 99.4076 22.0031C100.611 21.3511 101.965 21 103.47 21C104.975 21 106.329 21.3511 107.533 22.0031C108.736 22.6551 109.689 23.608 110.392 24.8118C111.094 26.0155 111.445 27.3195 111.445 28.8241C111.445 30.3288 111.094 31.683 110.392 32.8365C109.689 34.0403 108.736 34.943 107.533 35.6452C106.329 36.3474 104.975 36.6483 103.47 36.6483C101.965 36.6483 100.611 36.2972 99.4076 35.6452ZM106.128 33.4885C106.931 33.0372 107.533 32.3851 107.984 31.5827C108.435 30.7802 108.636 29.8272 108.636 28.8241C108.636 27.8211 108.435 26.8681 107.984 26.0656C107.533 25.2632 106.931 24.6111 106.128 24.1598C105.326 23.7084 104.473 23.4576 103.47 23.4576C102.467 23.4576 101.614 23.7084 100.812 24.1598C100.009 24.6111 99.4076 25.2632 98.9562 26.0656C98.5048 26.8681 98.3042 27.8211 98.3042 28.8241C98.3042 29.8272 98.5048 30.7802 98.9562 31.5827C99.4076 32.3851 100.009 33.0372 100.812 33.4885C101.614 33.9399 102.467 34.1907 103.47 34.1907C104.473 34.1907 105.326 33.9399 106.128 33.4885Z" fill="#505A7C"/>
<path d="M127.595 21.2007L121.024 36.4477H118.266L111.696 21.2007H114.705L119.72 32.9369L124.786 21.2007H127.595Z" fill="#505A7C"/>
<path d="M75.7345 21.2007L69.1642 36.4477H66.4057L59.8354 21.2007H62.8447L67.8602 32.9369L72.9259 21.2007H75.7345Z" fill="#505A7C"/>
<path d="M128.999 21.2007H131.808V36.4477H128.999V21.2007Z" fill="#505A7C"/>
<path d="M145.249 21.8527C146.202 22.3041 146.905 22.9059 147.456 23.7084C147.958 24.5109 148.209 25.4638 148.209 26.6174C148.209 27.7208 147.958 28.6737 147.456 29.4762C146.955 30.2787 146.202 30.9307 145.249 31.3821C144.296 31.8335 143.193 32.0341 141.889 32.0341H138.579V36.4477H135.82V21.2007H141.889C143.143 21.2007 144.296 21.4515 145.249 21.8527ZM144.497 28.8744C145.099 28.3728 145.45 27.6205 145.45 26.6174C145.45 25.6645 145.149 24.9121 144.497 24.3604C143.895 23.8589 142.992 23.558 141.789 23.558H138.579V29.6267H141.789C142.942 29.6768 143.845 29.3759 144.497 28.8744Z" fill="#505A7C"/>
</svg>
