<svg width="122" height="201" viewBox="0 0 122 201" fill="none" xmlns="http://www.w3.org/2000/svg">
<g clip-path="url(#clip0_884_1059)">
<path d="M113.368 186.766C113.368 179.184 90.1476 173.037 61.5052 173.037C32.8628 173.037 9.64258 179.184 9.64258 186.766C9.64258 194.348 32.8628 200.494 61.5052 200.494C90.1476 200.494 113.368 194.348 113.368 186.766Z" fill="#EFEFEF" fill-opacity="0.26"/>
<path d="M55.4033 84.5658H67.6063V182.19C67.6063 185.559 64.8743 188.291 61.5048 188.291C58.1353 188.291 55.4033 185.559 55.4033 182.19V84.5658Z" fill="#494342"/>
<path d="M118.039 60.1598C118.039 91.4355 92.6853 116.789 61.4097 116.789C30.134 116.789 4.78027 91.4355 4.78027 60.1598C4.78027 28.8842 30.134 3.53046 61.4097 3.53046C92.6853 3.53046 118.039 28.8842 118.039 60.1598Z" fill="#FF5757"/>
<path d="M85.9105 60.1599C85.9105 73.6395 74.9841 84.5658 61.5046 84.5658C48.025 84.5658 37.0986 73.6395 37.0986 60.1599C37.0986 46.6803 48.025 35.754 61.5046 35.754C74.9841 35.754 85.9105 46.6803 85.9105 60.1599Z" fill="white"/>
</g>
<defs>
<clipPath id="clip0_884_1059">
<rect width="121.244" height="200" fill="white" transform="translate(0.666992 0.666687)"/>
</clipPath>
</defs>
</svg>
