<?xml version="1.0" encoding="UTF-8"?>
<!DOCTYPE svg PUBLIC "-//W3C//DTD SVG 1.1//EN" "http://www.w3.org/Graphics/SVG/1.1/DTD/svg11.dtd">
<!-- Creator: CorelDRAW X7 -->
<svg xmlns="http://www.w3.org/2000/svg" xml:space="preserve" width="194.032mm" height="245.364mm" version="1.1" style="shape-rendering:geometricPrecision; text-rendering:geometricPrecision; image-rendering:optimizeQuality; fill-rule:evenodd; clip-rule:evenodd"
viewBox="0 0 18605 23527"
 xmlns:xlink="http://www.w3.org/1999/xlink"
 enable-background="new 0 0 16 16">
 <defs>
  <style type="text/css">
   <![CDATA[
    .str1 {stroke:#E31E24;stroke-width:479.422}
    .str0 {stroke:#2B2A29;stroke-width:7.3064}
    .fil1 {fill:none;fill-rule:nonzero}
    .fil0 {fill:#00A0E3}
   ]]>
  </style>
 </defs>
 <g id="Слой_x0020_1">
  <metadata id="CorelCorpID_0Corel-Layer"/>
  <g id="_806391184">
   <path class="fil0 str0" d="M9356 14709c-1879,0 -3402,-1523 -3402,-3403 0,-1879 3402,-7485 3402,-7485 0,0 3403,5606 3403,7485 0,1880 -1523,3403 -3403,3403zm2003 -3708c-175,948 -1004,1666 -2003,1666 -999,0 -1828,-718 -2003,-1666 -23,113 -38,219 -38,305 0,1128 913,2042 2041,2042 1128,0 2042,-914 2042,-2042 0,-86 -15,-192 -39,-305z"/>
  </g>
  <path class="fil1 str1" d="M6035 240l0 4465 -5651 0 8918 18275 8919 -18275 -5652 0 0 -4465 -6534 0zm0 2232m-2826 2233m1634 9137m8919 0m1633 -9137m-2826 -2233m-3267 -2232"/>
 </g>
</svg>
