<?xml version="1.0" encoding="UTF-8"?>
<!DOCTYPE svg PUBLIC "-//W3C//DTD SVG 1.1//EN" "http://www.w3.org/Graphics/SVG/1.1/DTD/svg11.dtd">
<!-- Creator: CorelDRAW X7 -->
<svg xmlns="http://www.w3.org/2000/svg" xml:space="preserve" width="210mm" height="297mm" version="1.1" style="shape-rendering:geometricPrecision; text-rendering:geometricPrecision; image-rendering:optimizeQuality; fill-rule:evenodd; clip-rule:evenodd"
viewBox="0 0 21000 29700"
 xmlns:xlink="http://www.w3.org/1999/xlink">
 <defs>
  <style type="text/css">
   <![CDATA[
    .str2 {stroke:#2B2A29;stroke-width:100}
    .str1 {stroke:black;stroke-width:100}
    .str0 {stroke:#009846;stroke-width:500}
    .str3 {stroke:#2B2A29;stroke-width:7.62}
    .fil0 {fill:none;fill-rule:nonzero}
    .fil1 {fill:#00A0E3}
    .fil2 {fill:#00A0E3;fill-rule:nonzero}
   ]]>
  </style>
 </defs>
 <g id="Слой_x0020_1">
  <metadata id="CorelCorpID_0Corel-Layer"/>
  <path class="fil0 str0" d="M13973 25959l0 -4657 5894 0 -9301 -19060 -9301 19060 5894 0 0 4657 6814 0zm0 -2329m2947 -2328m-1703 -9530m-9302 0m-1703 9530m2947 2328m3407 2329"/>
  <g id="_803598704">
   <path class="fil1 str1" d="M10212 12310c-9,285 -195,526 -341,685 -222,243 -345,289 -543,507 -351,384 -595,895 -232,1463 677,1059 2516,779 2690,-226 61,-350 -34,-577 -68,-895 -53,-509 -286,-335 -414,-11 -97,245 -109,553 -229,785 -340,663 -1199,228 -1241,-197 -46,-479 507,-845 785,-1285 189,-299 181,-442 168,-831l-575 5z"/>
   <path class="fil1 str1" d="M10142 9995c-194,31 -211,110 -282,251 -57,115 -117,235 -173,352 -55,116 -111,228 -168,345 -85,172 -30,207 55,370 118,231 219,468 342,697 73,135 214,141 415,141 154,0 431,14 570,-5 180,-25 209,-123 272,-252 60,-121 115,-233 175,-352 242,-484 257,-424 108,-718 -98,-195 -246,-529 -342,-697 -75,-131 -214,-136 -414,-136 -138,0 -441,-14 -558,4z"/>
  </g>
  <path class="fil2 str2" d="M11011 9768l0 -1549 1428 0 -1928 -3766 -1927 3766 1427 0 0 1549 1000 0zm0 -775m714 -774m-250 -1883m-1927 0m-250 1883m713 774m500 775"/>
  <path class="fil1 str3" d="M4815 16748c73,-194 1420,468 1484,498 135,52 280,80 425,80 145,0 290,-28 425,-80l772 -304c225,-89 465,-134 708,-134 243,0 483,45 708,133l773 304c135,53 280,81 425,81 145,0 289,-28 424,-80l773 -304c225,-89 465,-134 708,-134 242,0 482,45 707,133l774 304c135,53 279,81 424,81 146,0 286,-39 425,-80l1000 -297c111,-46 530,-179 530,-25 0,156 -97,306 -247,350l-1000 297c-225,88 -465,133 -708,133 -242,0 -483,-45 -708,-133l-773 -304c-134,-53 -279,-81 -424,-81 -145,0 -290,28 -425,80l-773 304c-225,89 -465,134 -707,134 -243,0 -483,-45 -708,-133l-773 -304c-135,-53 -280,-81 -425,-81 -145,0 -290,28 -424,80l-774 304c-225,89 -465,134 -707,134 -243,0 -480,-56 -708,-133l-989 -337c-144,-57 -239,-194 -239,-347 0,-48 75,-139 27,-139l0 0z"/>
  <path class="fil1 str3" d="M3978 17756c80,-193 1917,659 1987,688 146,53 302,80 460,80 157,0 313,-27 459,-80l837 -304c243,-88 504,-134 766,-134 263,0 523,46 767,134l837 304c146,53 303,80 460,80 157,0 313,-27 459,-80l837 -304c243,-88 504,-134 766,-134 263,0 523,46 767,134l837 304c146,53 303,80 460,80 157,0 314,-27 460,-80l1450 -526c120,-46 574,-180 574,-25 0,156 -107,295 -267,350l-1451 526c-244,88 -504,134 -766,134 -263,0 -523,-46 -767,-134l-837 -304c-145,-53 -302,-80 -459,-80 -157,0 -314,27 -460,80l-838 304c-243,88 -503,134 -765,134 -263,0 -523,-46 -767,-134l-837 -304c-146,-53 -302,-80 -459,-80 -158,0 -314,27 -460,80l-838 304c-243,88 -503,134 -766,134 -262,0 -523,-46 -766,-134l-1451 -526c-155,-57 -258,-195 -258,-347 0,-48 10,-96 30,-140l-1 0z"/>
  <path class="fil1 str3" d="M2881 18840c87,-194 2425,858 2501,887 159,53 329,81 500,81 171,0 341,-28 500,-81l910 -304c265,-88 548,-134 834,-134 285,0 568,46 833,134l911 304c159,53 329,81 500,81 171,0 341,-28 500,-81l910 -304c265,-88 548,-134 833,-134 286,0 569,46 834,134l911 304c158,53 329,81 500,81 171,0 340,-29 500,-81l2117 -686c131,-46 624,-179 624,-25 0,156 -117,294 -290,350l-2118 686c-265,88 -548,134 -834,134 -285,0 -568,-46 -833,-134l-910 -304c-159,-53 -329,-80 -500,-80 -171,0 -341,27 -500,80l-911 304c-265,88 -548,134 -833,134 -286,0 -569,-46 -834,-134l-910 -304c-159,-53 -329,-80 -500,-80 -171,0 -341,27 -500,80l-911 304c-265,88 -548,134 -833,134 -286,0 -574,-35 -834,-134l-1917 -726c-170,-57 -281,-194 -281,-347 0,-48 89,-139 32,-139l-1 0z"/>
 </g>
</svg>
