<svg width="20" height="20" viewBox="0 0 20 20" fill="none" xmlns="http://www.w3.org/2000/svg">
<path d="M6.00024 3.99805H9.73022C11.4302 3.99805 12.6635 4.24142 13.4302 4.72809C14.2035 5.20809 14.5903 5.97809 14.5903 7.03809C14.5903 7.75809 14.4203 8.3447 14.0803 8.79803C13.747 9.25803 13.3002 9.53472 12.7402 9.62805V9.70807C13.5002 9.87474 14.0468 10.1914 14.3801 10.6581C14.7201 11.1247 14.8901 11.7447 14.8901 12.5181C14.8901 13.6114 14.4935 14.4647 13.7002 15.0781C12.9135 15.6914 11.8402 15.998 10.4802 15.998H5.99023V3.99805H6.00024ZM8.54028 8.74805H10.0203C10.7069 8.74805 11.2036 8.64137 11.5103 8.42804C11.8236 8.21471 11.9802 7.86138 11.9802 7.36804C11.9802 6.90804 11.8102 6.58139 11.4702 6.38806C11.1369 6.18806 10.6068 6.08807 9.88013 6.08807H8.54028V8.75806V8.74805ZM8.54028 10.7681V13.8981H10.2002C10.9002 13.8981 11.4169 13.7647 11.7502 13.498C12.0836 13.2314 12.2502 12.8214 12.2502 12.2681C12.2502 11.2747 11.5404 10.7781 10.1204 10.7781H8.54028V10.7681Z" fill="#102236"/>
</svg>
