<svg width="640" height="400" viewBox="0 0 640 400" fill="none" xmlns="http://www.w3.org/2000/svg">
<rect width="640" height="400" fill="#E1E8EF"/>
<path d="M375.321 140.125H354.388L351.951 132.813C350.776 129.262 348.511 126.172 345.478 123.984C342.445 121.796 338.799 120.62 335.059 120.625H304.941C301.202 120.622 297.558 121.798 294.526 123.987C291.494 126.175 289.229 129.263 288.054 132.813L285.612 140.125H264.678C259.958 140.13 255.433 142.008 252.095 145.345C248.758 148.683 246.88 153.208 246.875 157.929V229.591C246.885 234.308 248.765 238.828 252.102 242.162C255.439 245.495 259.962 247.37 264.678 247.375H375.341C380.058 247.365 384.578 245.485 387.912 242.148C391.245 238.811 393.12 234.288 393.125 229.572V157.909C393.115 153.192 391.235 148.672 387.898 145.338C384.561 142.005 380.038 140.13 375.321 140.125ZM383.375 229.572C383.372 231.707 382.523 233.754 381.013 235.263C379.504 236.773 377.457 237.622 375.321 237.625H264.678C262.543 237.622 260.496 236.773 258.987 235.263C257.477 233.754 256.628 231.707 256.625 229.572V157.909C256.633 155.777 257.484 153.735 258.994 152.23C260.503 150.724 262.547 149.878 264.678 149.875H289.127C290.149 149.874 291.146 149.552 291.975 148.953C292.805 148.355 293.425 147.511 293.748 146.541L297.302 135.879C297.836 134.275 298.861 132.88 300.232 131.892C301.603 130.905 303.251 130.374 304.941 130.375H335.059C336.75 130.373 338.398 130.905 339.77 131.894C341.141 132.883 342.166 134.279 342.698 135.884L346.252 146.541C346.575 147.511 347.195 148.355 348.025 148.953C348.854 149.552 349.851 149.874 350.873 149.875H375.321C377.457 149.878 379.504 150.727 381.013 152.237C382.523 153.746 383.372 155.793 383.375 157.929V229.572Z" fill="#1C2135" fill-opacity="0.86"/>
<path d="M320 154.75C312.769 154.75 305.7 156.894 299.687 160.912C293.674 164.929 288.988 170.64 286.221 177.321C283.453 184.002 282.729 191.353 284.14 198.445C285.551 205.538 289.033 212.053 294.146 217.166C299.26 222.279 305.775 225.762 312.867 227.172C319.959 228.583 327.311 227.859 333.992 225.092C340.673 222.325 346.383 217.638 350.401 211.626C354.418 205.613 356.563 198.544 356.563 191.312C356.552 181.619 352.697 172.325 345.842 165.47C338.988 158.616 329.694 154.76 320 154.75ZM320 218.125C314.697 218.125 309.513 216.552 305.104 213.606C300.694 210.66 297.258 206.473 295.228 201.573C293.199 196.674 292.668 191.283 293.703 186.082C294.737 180.881 297.291 176.103 301.041 172.353C304.791 168.603 309.568 166.05 314.769 165.015C319.97 163.981 325.361 164.512 330.261 166.541C335.16 168.57 339.348 172.007 342.294 176.416C345.24 180.826 346.813 186.009 346.813 191.312C346.805 198.421 343.977 205.237 338.951 210.263C333.924 215.29 327.109 218.117 320 218.125Z" fill="#1C2135" fill-opacity="0.86"/>
<path d="M320.001 154.25H320C312.67 154.25 305.504 156.424 299.409 160.496C293.314 164.569 288.564 170.357 285.759 177.129C282.954 183.902 282.22 191.354 283.65 198.543C285.08 205.732 288.61 212.336 293.793 217.52C298.976 222.703 305.58 226.233 312.769 227.663C319.959 229.093 327.411 228.359 334.183 225.554C340.955 222.749 346.744 217.998 350.816 211.903C354.889 205.808 357.063 198.643 357.063 191.312V191.312C357.052 181.486 353.144 172.065 346.196 165.117C339.248 158.169 329.827 154.26 320.001 154.25ZM319.999 217.625C314.796 217.625 309.708 216.082 305.382 213.191C301.055 210.299 297.682 206.19 295.69 201.382C293.699 196.574 293.178 191.283 294.193 186.179C295.208 181.075 297.714 176.387 301.394 172.707C305.074 169.027 309.763 166.521 314.867 165.506C319.971 164.49 325.261 165.011 330.069 167.003C334.877 168.994 338.987 172.367 341.878 176.694C344.769 181.021 346.312 186.108 346.313 191.312C346.305 198.288 343.53 204.977 338.597 209.91C333.664 214.843 326.976 217.617 319.999 217.625Z" stroke="#1C2135" stroke-opacity="0.86"/>
<path d="M368.75 169.375C371.442 169.375 373.625 167.192 373.625 164.5C373.625 161.808 371.442 159.625 368.75 159.625C366.058 159.625 363.875 161.808 363.875 164.5C363.875 167.192 366.058 169.375 368.75 169.375Z" fill="#1C2135" fill-opacity="0.86"/>
</svg>
