<svg width="20" height="20" viewBox="0 0 20 20" fill="none" xmlns="http://www.w3.org/2000/svg">
<path d="M9.99917 3.03809C8.49917 3.03809 6.89922 3.63804 5.79922 4.73804C3.49922 7.03804 3.49922 10.938 5.79922 13.238L7.19912 11.8381C5.59912 10.2381 5.59912 7.73804 7.19912 6.23804C8.79912 4.63804 11.2992 4.63804 12.7992 6.23804C14.3992 7.83804 14.3992 10.3381 12.7992 11.8381C11.9992 12.6381 10.9992 13.0381 9.99917 13.0381H8.99917V17.0381H10.9992V14.938C12.1992 14.738 13.3992 14.138 14.2992 13.238C16.5992 10.938 16.5992 7.03804 14.2992 4.73804C13.0992 3.53804 11.5993 3.03809 10.0993 3.03809H9.99917Z" fill="#102236"/>
</svg>
