<svg width="20" height="20" viewBox="0 0 20 20" fill="none" xmlns="http://www.w3.org/2000/svg">
<path d="M9 4.03809C7.3 4.03809 5.9001 4.63806 5.1001 5.63806C4.3001 6.63806 4 7.83809 4 9.03809V15.0381H6V9.03809C6 8.23809 6.19995 7.43805 6.69995 6.93805C7.09995 6.43805 7.8 6.03809 9 6.03809C10.3 6.03809 10.9 6.43805 11.3 6.93805C11.7 7.43805 12 8.23809 12 9.03809V11.0381H7.5L13 16.5381L18.5 11.0381H14V9.03809C14 7.83809 13.6999 6.63806 12.8999 5.63806C12.0999 4.63806 10.7 4.03809 9 4.03809Z" fill="#102236"/>
</svg>
